<svg width="32" height="32" viewBox="0 0 32 32" fill="none" xmlns="http://www.w3.org/2000/svg">
<g clip-path="url(#clip0_318_819)">
<path d="M25.703 18.4773L19.9741 16.0517C19.8708 16 19.7161 16 19.6127 16.0517C19.5094 16.1034 19.4063 16.2064 19.4063 16.3098L16.0515 29.8838L12.645 16.3098C12.5933 16.2064 12.5417 16.1034 12.4386 16.0517C12.3353 16 12.2322 16 12.0772 16.0517L6.39979 18.2193C5.6256 18.529 5.16113 19.1485 5.16113 19.871V31.5872C5.16113 31.7936 5.36753 32 5.57394 32H15.8451H16.1032H26.3741C26.5805 32 26.7869 31.8453 26.7869 31.5872V20.1291C26.8902 19.4582 26.4258 18.7871 25.703 18.4773Z" fill="#FA9905"/>
<path d="M17.8583 17.2386C18.1164 16.8258 18.0647 16.2581 17.7033 15.8967C17.4969 15.6386 17.1872 15.5355 16.8261 15.5355H15.2777C14.968 15.5355 14.6066 15.6903 14.4002 15.8967C14.0904 16.2581 13.9874 16.7742 14.2454 17.2386L14.6582 17.8581C14.8646 18.2192 14.968 18.5806 14.9163 18.9934L14.6582 21.6774L15.4324 23.7936C15.5358 24.0517 15.7422 24.2064 16.0519 24.2064C16.3616 24.2064 16.568 24.0517 16.6711 23.7936L17.4453 21.6774L17.1358 19.0451C17.0841 18.6323 17.1872 18.2192 17.3939 17.9098L17.8583 17.2386Z" fill="#FA9905"/>
<path d="M16.0515 14.3483C19.458 14.3483 22.245 11.5612 22.245 8.15474V6.19355C22.245 2.78705 19.458 0 16.0515 0C12.645 0 9.85791 2.78705 9.85791 6.19355V8.15474C9.85791 11.5612 12.645 14.3483 16.0515 14.3483Z" fill="#FA9905"/>
</g>
<defs>
<clipPath id="clip0_318_819">
<rect width="32" height="32" fill="white"/>
</clipPath>
</defs>
</svg>
