<svg width="32" height="32" viewBox="0 0 32 32" fill="none" xmlns="http://www.w3.org/2000/svg">
<g clip-path="url(#clip0_318_814)">
<path d="M9.97491 10.9792C13.0019 10.9792 15.4645 8.51656 15.4645 5.48962C15.4645 2.46263 13.0019 0 9.97491 0C6.94798 0 4.48535 2.46263 4.48535 5.48956C4.48535 8.51656 6.94798 10.9792 9.97491 10.9792Z" fill="#FA9905"/>
<path d="M21.0208 16.9375H24.1V19.0793H14.9956C14.4781 19.0793 14.0581 19.4987 14.0581 20.0168V24.1H29.9919V20.0168C29.9919 19.4987 29.5719 19.0793 29.0544 19.0793H25.975V16.9375H29.0542C29.5719 16.9375 29.9917 16.5177 29.9917 16V11.9833C29.9917 11.4655 29.5719 11.0458 29.0542 11.0458H21.0208C20.503 11.0458 20.0833 11.4655 20.0833 11.9833V16C20.0833 16.5177 20.503 16.9375 21.0208 16.9375Z" fill="#FA9905"/>
<path d="M12.1833 20.0169C12.1833 18.4656 13.4452 17.2044 14.9958 17.2044H17.3645C16.7558 13.6606 13.6527 10.9587 9.93268 10.9794C5.79518 11.0019 2.47705 14.4206 2.47705 18.5587V24.1H12.1833V20.0169Z" fill="#FA9905"/>
<path d="M31.0625 25.975H0.9375C0.41975 25.975 0 26.3947 0 26.9125V31.0625C0 31.5802 0.41975 32 0.9375 32H31.0625C31.5802 32 32 31.5802 32 31.0625V26.9125C32 26.3947 31.5802 25.975 31.0625 25.975Z" fill="#FA9905"/>
</g>
<defs>
<clipPath id="clip0_318_814">
<rect width="32" height="32" fill="white"/>
</clipPath>
</defs>
</svg>
