<svg width="32" height="32" viewBox="0 0 32 32" fill="none" xmlns="http://www.w3.org/2000/svg">
<path fill-rule="evenodd" clip-rule="evenodd" d="M24.6237 23.6139H26.3332V24.1422H24.6237V23.6139ZM24.6237 22.5541H27.0912V23.0824H24.6237V22.5541ZM24.6237 21.4976H27.0912V22.0258H24.6237V21.4976ZM23.554 19.7191V26.6098H28.1478V19.7191H23.554ZM18.2778 19.7191V26.6098H22.8715V19.7191H18.2778ZM17.2212 18.679H29.2175V27.6663H24.6237C24.6228 27.8067 24.5664 27.9411 24.4669 28.0401C24.3673 28.1391 24.2326 28.1946 24.0922 28.1946H22.3301C22.1923 28.1912 22.0613 28.1341 21.965 28.0354C21.8687 27.9366 21.8149 27.8042 21.815 27.6663H17.2212V18.679ZM17.5493 14.7415C19.0174 14.7469 20.4768 14.968 21.8806 15.3978C23.6267 15.8586 25.2729 16.6372 26.7368 17.6946H16.2368V25.2415H7.80072C8.35839 24.9554 8.80495 24.4918 9.06995 23.9239C9.33494 23.3559 9.40329 22.7158 9.26421 22.1047C9.12765 21.5902 8.8464 21.1257 8.45383 20.7663C8.06126 20.4068 7.57383 20.1675 7.04936 20.0767V19.9915C7.05782 19.5856 7.15642 19.1866 7.33801 18.8234C7.51961 18.4602 7.77966 18.1419 8.09936 17.8916C9.65213 16.7765 11.383 15.9333 13.2181 15.3978C14.6263 14.9875 16.0828 14.7668 17.5493 14.7415ZM2.69671 11.5308C2.7794 11.5034 2.86958 11.51 2.94742 11.5491C3.02526 11.5882 3.08439 11.6566 3.11181 11.7393L6.08464 20.7101C6.36212 20.6466 6.6495 20.6393 6.92986 20.6886C7.21022 20.7379 7.47788 20.8428 7.71707 20.9971C7.95626 21.1514 8.16215 21.352 8.3226 21.5872C8.48305 21.8223 8.59481 22.0872 8.65131 22.3662C8.70782 22.6451 8.70791 22.9326 8.65158 23.2117C8.59526 23.4907 8.48366 23.7556 8.32336 23.9908C8.16306 24.2261 7.9573 24.4268 7.71821 24.5813C7.47911 24.7358 7.21152 24.8409 6.93119 24.8903C5.70073 25.1956 5.02151 25.3663 4.50307 23.2991C4.05353 21.4878 4.51619 21.1301 5.46119 20.8644L2.48837 11.9458C2.4748 11.9049 2.46942 11.8617 2.47254 11.8187C2.47567 11.7757 2.48724 11.7337 2.50658 11.6951C2.52593 11.6566 2.55268 11.6222 2.58531 11.594C2.61793 11.5658 2.65577 11.5443 2.69671 11.5308ZM17.5493 2.92902C18.5877 2.92902 19.6027 3.23692 20.4661 3.8138C21.3294 4.39068 22.0023 5.21062 22.3997 6.16993C22.7971 7.12924 22.901 8.18484 22.6985 9.20324C22.4959 10.2216 21.9959 11.1571 21.2616 11.8913C20.5274 12.6256 19.592 13.1256 18.5736 13.3281C17.5552 13.5307 16.4996 13.4267 15.5402 13.0294C14.5809 12.632 13.761 11.9591 13.1841 11.0958C12.6072 10.2324 12.2993 9.21737 12.2993 8.17902C12.2993 6.78663 12.8525 5.45127 13.837 4.46671C14.8216 3.48214 16.1569 2.92902 17.5493 2.92902Z" fill="#FA9905"/>
</svg>
