<svg width="32" height="32" viewBox="0 0 32 32" fill="none" xmlns="http://www.w3.org/2000/svg">
<path d="M16 10.625C18.934 10.625 21.3125 8.24651 21.3125 5.3125C21.3125 2.37849 18.934 0 16 0C13.066 0 10.6875 2.37849 10.6875 5.3125C10.6875 8.24651 13.066 10.625 16 10.625Z" fill="#FA9905"/>
<path d="M19.9039 11.3447C18.7791 12.0752 17.4384 12.5 16.0002 12.5C14.562 12.5 13.2213 12.0752 12.0965 11.3447C10.8531 11.8199 9.70019 12.521 8.69775 13.4207L16.0002 16.1592L23.3026 13.4207C22.3002 12.521 21.1473 11.8199 19.9039 11.3447Z" fill="#FA9905"/>
<path d="M27.25 19.375H26.625C26.1072 19.375 25.6875 19.7947 25.6875 20.3125V22.8125C25.6875 23.3303 26.1072 23.75 26.625 23.75H27.25C28.4581 23.75 29.4375 22.7706 29.4375 21.5625C29.4375 20.3544 28.4581 19.375 27.25 19.375Z" fill="#FA9905"/>
<path d="M5.466 14.6422C5.21325 14.8174 5.0625 15.1053 5.0625 15.4128V17.5H5.375C6.92581 17.5 8.1875 18.7617 8.1875 20.3125V22.8125C8.1875 24.3633 6.92581 25.625 5.375 25.625H5.0625V27.6003C5.0625 27.9911 5.30494 28.3409 5.67081 28.4781L15.0625 32V17.81L6.32919 14.535C6.04125 14.4269 5.71869 14.467 5.466 14.6422Z" fill="#FA9905"/>
<path d="M23.8125 22.8125V20.3125C23.8125 18.7617 25.0742 17.5 26.625 17.5H26.9375V15.4128C26.9375 15.1053 26.7868 14.8174 26.534 14.6422C26.2812 14.467 25.9586 14.4269 25.6708 14.535L16.9375 17.81V32L26.3292 28.4781C26.6951 28.3409 26.9375 27.9911 26.9375 27.6003V25.625H26.625C25.0742 25.625 23.8125 24.3633 23.8125 22.8125Z" fill="#FA9905"/>
<path d="M6.3125 22.8125V20.3125C6.3125 19.7947 5.89275 19.375 5.375 19.375H4.75C3.54188 19.375 2.5625 20.3544 2.5625 21.5625C2.5625 22.7706 3.54188 23.75 4.75 23.75H5.375C5.89275 23.75 6.3125 23.3303 6.3125 22.8125Z" fill="#FA9905"/>
</svg>
