<svg width="32" height="32" viewBox="0 0 32 32" fill="none" xmlns="http://www.w3.org/2000/svg">
<path d="M15.3333 16.3254C19.3834 16.3254 22.6667 13.0421 22.6667 8.99202C22.6667 4.94194 19.3834 1.65869 15.3333 1.65869C11.2832 1.65869 8 4.94194 8 8.99202C8 13.0421 11.2832 16.3254 15.3333 16.3254Z" fill="#FA9905"/>
<path fill-rule="evenodd" clip-rule="evenodd" d="M23.3333 18.584C20.712 18.584 18.584 20.712 18.584 23.3334C18.584 25.9547 20.712 28.084 23.3333 28.084C25.9547 28.084 28.084 25.9547 28.084 23.3334C28.084 20.712 25.9547 18.584 23.3333 18.584ZM23.3333 20.584C24.8507 20.584 26.084 21.816 26.084 23.3334C26.084 24.8507 24.8507 26.084 23.3333 26.084C21.816 26.084 20.5827 24.8507 20.5827 23.3334C20.5827 21.816 21.816 20.584 23.3333 20.584Z" fill="#FA9905"/>
<path fill-rule="evenodd" clip-rule="evenodd" d="M24.333 19.5827V17.3334C24.333 16.7814 23.885 16.3334 23.333 16.3334C22.781 16.3334 22.333 16.7814 22.333 17.3334V19.584C22.333 20.1347 22.781 20.584 23.333 20.584C23.885 20.5827 24.333 20.1347 24.333 19.5827Z" fill="#FA9905"/>
<path fill-rule="evenodd" clip-rule="evenodd" d="M26.692 21.3893L28.2827 19.7973C28.6734 19.408 28.6734 18.7733 28.2827 18.384C27.8934 17.9933 27.2587 17.9933 26.8694 18.384L25.2774 19.9747C24.888 20.3653 24.888 20.9987 25.2774 21.3893C25.668 21.7787 26.3014 21.7787 26.692 21.3893Z" fill="#FA9905"/>
<path fill-rule="evenodd" clip-rule="evenodd" d="M27.0827 24.3334H29.3333C29.8853 24.3334 30.3333 23.8854 30.3333 23.3334C30.3333 22.7814 29.8853 22.3334 29.3333 22.3334H27.0827C26.532 22.3334 26.084 22.7814 26.084 23.3334C26.0827 23.8854 26.532 24.3334 27.0827 24.3334Z" fill="#FA9905"/>
<path fill-rule="evenodd" clip-rule="evenodd" d="M25.2774 26.692L26.8694 28.2827C27.2587 28.6734 27.8934 28.6734 28.2827 28.2827C28.6734 27.8934 28.6734 27.2587 28.2827 26.8694L26.692 25.2774C26.3014 24.888 25.668 24.888 25.2774 25.2774C24.888 25.668 24.888 26.3014 25.2774 26.692Z" fill="#FA9905"/>
<path fill-rule="evenodd" clip-rule="evenodd" d="M22.333 27.0827V29.3334C22.333 29.8854 22.781 30.3334 23.333 30.3334C23.885 30.3334 24.333 29.8854 24.333 29.3334V27.0827C24.333 26.532 23.885 26.084 23.333 26.0827C22.781 26.0827 22.333 26.532 22.333 27.0827Z" fill="#FA9905"/>
<path fill-rule="evenodd" clip-rule="evenodd" d="M19.9745 25.2774L18.3838 26.8694C17.9932 27.2587 17.9932 27.8934 18.3838 28.2827C18.7732 28.6734 19.4078 28.6734 19.7972 28.2827L21.3892 26.692C21.7785 26.3014 21.7785 25.668 21.3892 25.2774C20.9985 24.888 20.3652 24.888 19.9745 25.2774Z" fill="#FA9905"/>
<path fill-rule="evenodd" clip-rule="evenodd" d="M19.5823 22.3334H17.333C16.781 22.3334 16.333 22.7814 16.333 23.3334C16.333 23.8854 16.781 24.3334 17.333 24.3334H19.5823C20.1343 24.3334 20.5837 23.8854 20.5823 23.3334C20.5823 22.7814 20.1343 22.3334 19.5823 22.3334Z" fill="#FA9905"/>
<path fill-rule="evenodd" clip-rule="evenodd" d="M21.3892 19.9747L19.7972 18.384C19.4078 17.9933 18.7732 17.9933 18.3838 18.384C17.9932 18.7733 17.9932 19.408 18.3838 19.7973L19.9745 21.3893C20.3652 21.7787 20.9985 21.7787 21.3892 21.3893C21.7785 20.9987 21.7785 20.3653 21.3892 19.9747Z" fill="#FA9905"/>
<path fill-rule="evenodd" clip-rule="evenodd" d="M17.2478 29.008C16.5358 28.0933 16.5998 26.7667 17.4412 25.9267L17.6998 25.6667H17.3332C16.0452 25.6667 14.9998 24.6213 14.9998 23.3333C14.9998 22.0453 16.0452 21 17.3332 21H17.6998L17.4412 20.74C16.5665 19.8667 16.5318 18.468 17.3372 17.552C16.6838 17.5013 16.0145 17.4747 15.3332 17.4747C10.9038 17.4747 6.9825 18.5827 4.54784 20.2427C2.6905 21.5093 1.6665 23.1187 1.6665 24.808V26.7413C1.6665 27.3427 1.90517 27.92 2.3305 28.344C2.75584 28.7693 3.33184 29.008 3.93317 29.008H17.2478Z" fill="#FA9905"/>
</svg>
