<svg width="32" height="32" viewBox="0 0 32 32" fill="none" xmlns="http://www.w3.org/2000/svg">
<path d="M20.6346 5.00861L19.8142 3.93161L20.6346 2.85474C20.8128 2.62108 20.7679 2.28721 20.5342 2.10901C20.4411 2.03808 20.3273 1.99974 20.2103 2.00001H16.0103C15.7142 1.99834 15.4718 2.23528 15.4668 2.53141V7.26667H16.5335V5.86668H20.2103C20.5055 5.86601 20.7443 5.62614 20.7437 5.33094C20.7434 5.21448 20.7051 5.10128 20.6346 5.00861Z" fill="#FA9905"/>
<path d="M3.7908 18.8C3.35633 18.7977 3.00227 19.1481 3 19.5825C3 19.5859 3 19.5894 3 19.5929V30H9.73333V18.8H3.7908ZM5.53333 27.0667C5.53333 27.3612 5.29453 27.6 5 27.6C4.70547 27.6 4.46667 27.3612 4.46667 27.0667V25.9206C4.46667 25.6261 4.70547 25.3873 5 25.3873C5.29453 25.3873 5.53333 25.6261 5.53333 25.9206V27.0667ZM5.53333 22.6028C5.53333 22.8973 5.29453 23.1361 5 23.1361C4.70547 23.1361 4.46667 22.8973 4.46667 22.6028V21.4567C4.46667 21.1621 4.70547 20.9233 5 20.9233C5.29453 20.9233 5.53333 21.1621 5.53333 21.4567V22.6028ZM8.26667 27.0667C8.26667 27.3612 8.02787 27.6 7.73333 27.6C7.4388 27.6 7.2 27.3612 7.2 27.0667V25.9206C7.2 25.6261 7.4388 25.3873 7.73333 25.3873C8.02787 25.3873 8.26667 25.6261 8.26667 25.9206V27.0667ZM8.26667 22.6028C8.26667 22.8973 8.02787 23.1361 7.73333 23.1361C7.4388 23.1361 7.2 22.8973 7.2 22.6028V21.4567C7.2 21.1621 7.4388 20.9233 7.73333 20.9233C8.02787 20.9233 8.26667 21.1621 8.26667 21.4567V22.6028Z" fill="#FA9905"/>
<path d="M15.9141 11.3667L10.7998 15.717V30H13.1331V24.446C13.1261 24.1699 13.3441 23.9404 13.6202 23.9333C13.6292 23.9331 13.6382 23.9331 13.6472 23.9334H18.2317C18.5021 23.9266 18.7267 24.1402 18.7335 24.4104C18.7338 24.4223 18.7337 24.4341 18.7331 24.446V30H20.9998V15.712L15.9141 11.3667ZM18.2317 20.9334H13.6171C13.3225 20.9334 13.0837 20.6946 13.0837 20.4C13.0837 20.1055 13.3225 19.8667 13.6171 19.8667H18.2317C18.5263 19.8667 18.7651 20.1055 18.7651 20.4C18.7651 20.6946 18.5263 20.9334 18.2317 20.9334Z" fill="#FA9905"/>
<path d="M28.2193 18.8C28.2159 18.8 28.2124 18.8 28.2089 18.8H22.0664V30H28.9997V19.5929C29.0032 19.1584 28.6537 18.8035 28.2193 18.8ZM24.7997 27.0667C24.7997 27.3612 24.5609 27.6 24.2664 27.6C23.9719 27.6 23.7331 27.3612 23.7331 27.0667V25.9206C23.7331 25.6261 23.9719 25.3873 24.2664 25.3873C24.5609 25.3873 24.7997 25.6261 24.7997 25.9206V27.0667ZM24.7997 22.6028C24.7997 22.8973 24.5609 23.1361 24.2664 23.1361C23.9719 23.1361 23.7331 22.8973 23.7331 22.6028V21.4567C23.7331 21.1621 23.9719 20.9233 24.2664 20.9233C24.5609 20.9233 24.7997 21.1621 24.7997 21.4567V22.6028ZM27.4664 27.0667C27.4664 27.3612 27.2276 27.6 26.9331 27.6C26.6385 27.6 26.3997 27.3612 26.3997 27.0667V25.9206C26.3997 25.6261 26.6385 25.3873 26.9331 25.3873C27.2276 25.3873 27.4664 25.6261 27.4664 25.9206V27.0667ZM27.4664 22.6028C27.4664 22.8973 27.2276 23.1361 26.9331 23.1361C26.6385 23.1361 26.3997 22.8973 26.3997 22.6028V21.4567C26.3997 21.1621 26.6385 20.9233 26.9331 20.9233C27.2276 20.9233 27.4664 21.1621 27.4664 21.4567V22.6028Z" fill="#FA9905"/>
<path d="M15.9403 7.98907L8.30811 14.5231L9.27264 15.6454L15.594 10.2591C15.7937 10.0889 16.0874 10.0892 16.2868 10.2598L22.5819 15.6476L23.5686 14.52L15.9403 7.98907Z" fill="#FA9905"/>
<path d="M17.6669 25H14.2002V30H17.6669V25Z" fill="#FA9905"/>
</svg>
