<svg width="1920" height="500" viewBox="0 0 1920 500" fill="none" xmlns="http://www.w3.org/2000/svg">
<mask id="mask0_36_1265" style="mask-type:alpha" maskUnits="userSpaceOnUse" x="0" y="0" width="1920" height="500">
<path d="M0 0H1920V500H0V0Z" fill="#FFF9EF"/>
</mask>
<g mask="url(#mask0_36_1265)">
<rect x="0.29834" width="1920" height="500" fill="#FFF9EF"/>
<path d="M118.927 17.1529C118.927 66.125 79.2508 105.806 30.3314 105.806C-18.588 105.806 -58.2642 66.125 -58.2642 17.1529C-58.2642 -31.8193 -18.588 -71.5 30.3314 -71.5C79.2508 -71.5 118.927 -31.8193 118.927 17.1529Z" stroke="#FA9905" stroke-width="43"/>
<path d="M1963.36 300C1963.36 321.539 1945.91 339 1924.38 339C1902.86 339 1885.4 321.539 1885.4 300C1885.4 278.461 1902.86 261 1924.38 261C1945.91 261 1963.36 278.461 1963.36 300Z" fill="#FA9905"/>
</g>
</svg>
