<svg width="64" height="64" viewBox="0 0 64 64" fill="none" xmlns="http://www.w3.org/2000/svg">
<path d="M36.745 2H10.38C6.26875 2 2.9375 5.33125 2.9375 9.4425V54.5575C2.9375 58.6687 6.26875 62 10.38 62H36.745C40.8562 62 44.1875 58.6687 44.1875 54.5575C44.1875 52.6305 44.1875 11.3659 44.1875 9.4425C44.1875 5.33125 40.8562 2 36.745 2Z" fill="white"/>
<path d="M36.745 63.875H10.38C5.24225 63.875 1.0625 59.6952 1.0625 54.5575V9.4425C1.0625 4.30475 5.24225 0.125 10.38 0.125H36.745C41.8827 0.125 46.0625 4.30475 46.0625 9.4425V32.9375C46.0625 33.973 45.223 34.8125 44.1875 34.8125C43.152 34.8125 42.3125 33.973 42.3125 32.9375V9.4425C42.3125 6.3725 39.815 3.875 36.745 3.875H10.38C7.31 3.875 4.8125 6.3725 4.8125 9.4425V54.5575C4.8125 57.6275 7.31 60.125 10.38 60.125H36.745C39.815 60.125 42.3125 57.6275 42.3125 54.5575V40.8084C42.3125 39.7729 43.152 38.9334 44.1875 38.9334C45.223 38.9334 46.0625 39.7729 46.0625 40.8084V54.5575C46.0625 59.6952 41.8827 63.875 36.745 63.875Z" fill="#00B6FF"/>
<path d="M34.8125 15.125H12.3125C11.277 15.125 10.4375 14.2855 10.4375 13.25C10.4375 12.2145 11.277 11.375 12.3125 11.375H34.8125C35.848 11.375 36.6875 12.2145 36.6875 13.25C36.6875 14.2855 35.848 15.125 34.8125 15.125ZM34.8125 22.625H12.3125C11.277 22.625 10.4375 21.7855 10.4375 20.75C10.4375 19.7145 11.277 18.875 12.3125 18.875H34.8125C35.848 18.875 36.6875 19.7145 36.6875 20.75C36.6875 21.7855 35.848 22.625 34.8125 22.625ZM34.8125 30.125H12.3125C11.277 30.125 10.4375 29.2855 10.4375 28.25C10.4375 27.2145 11.277 26.375 12.3125 26.375H34.8125C35.848 26.375 36.6875 27.2145 36.6875 28.25C36.6875 29.2855 35.848 30.125 34.8125 30.125ZM23.5625 37.625H12.3125C11.277 37.625 10.4375 36.7855 10.4375 35.75C10.4375 34.7145 11.277 33.875 12.3125 33.875H23.5625C24.598 33.875 25.4375 34.7145 25.4375 35.75C25.4375 36.7855 24.598 37.625 23.5625 37.625Z" fill="#00B6FF"/>
<path d="M57.3125 32.08L52.0088 37.3838L46.7375 34.175L44.0538 29.4287C45.2806 28.2019 47.9401 25.5424 49.3575 24.125L54.5041 27.175L57.3125 32.08Z" fill="#1CA59B"/>
<path d="M52.0084 37.3837C51.1349 38.2572 36.9722 52.4198 36.0984 53.2937L26.8184 54.6187L28.1434 45.3387L44.0534 29.4287L52.0084 37.3837Z" fill="#1CA59B"/>
<path d="M61.29 20.1475C63.4839 22.3414 63.4895 25.903 61.29 28.1025L57.3125 32.08L49.3575 24.125L53.335 20.1475C55.5312 17.9512 59.0937 17.9512 61.29 20.1475Z" fill="#F25268"/>
</svg>
