<svg width="52" height="51" viewBox="0 0 52 51" fill="none" xmlns="http://www.w3.org/2000/svg">
<path fill-rule="evenodd" clip-rule="evenodd" d="M40.1599 44.0347C40.035 44.0347 39.91 43.993 39.8266 43.9096L31.4531 37.9107C29.5366 38.6188 27.5786 38.9938 25.579 38.9938C16.5388 38.9938 9.16504 31.62 9.16504 22.5381C9.16504 13.4978 16.5388 6.12402 25.579 6.12402C34.6608 6.12402 41.993 13.4978 41.993 22.5381C41.993 25.9542 40.9514 29.2453 38.9935 31.9948L40.7432 43.3264C40.7849 43.5763 40.6599 43.7847 40.4516 43.9096C40.3683 44.0347 40.2432 44.0347 40.1599 44.0347ZM33.6609 25.4959C31.7863 25.4959 30.2865 23.9963 30.2865 22.1215C30.2865 20.2468 31.7863 18.7471 33.6609 18.7471C35.494 18.7471 37.0354 20.2468 37.0354 22.1215C36.9937 23.9962 35.4941 25.4959 33.6609 25.4959ZM33.6609 19.9553C32.4528 19.9553 31.4531 20.9551 31.4531 22.1631C31.4531 23.3714 32.4529 24.3295 33.6609 24.3295C34.8691 24.3295 35.8273 23.3714 35.8273 22.1631C35.8273 20.9134 34.8691 19.9553 33.6609 19.9553ZM25.579 25.4959C23.746 25.4959 22.2045 23.9963 22.2045 22.1215C22.2045 20.2468 23.7042 18.7471 25.579 18.7471C27.4537 18.7471 28.9534 20.2468 28.9534 22.1215C28.9534 23.9962 27.4536 25.4959 25.579 25.4959ZM25.579 19.9553C24.3708 19.9553 23.4127 20.9134 23.4127 22.1631C23.4127 23.3714 24.3708 24.3295 25.579 24.3295C26.7871 24.3295 27.7869 23.3714 27.7869 22.1631C27.7869 20.9549 26.7871 19.9553 25.579 19.9553ZM17.5386 25.4959C15.6639 25.4959 14.1642 23.9963 14.1642 22.1215C14.1642 20.2468 15.6639 18.7471 17.5386 18.7471C19.3717 18.7471 20.9131 20.2468 20.9131 22.1215C20.9131 23.9962 19.4132 25.4959 17.5386 25.4959ZM17.5386 19.9553C16.3304 19.9553 15.3306 20.9551 15.3306 22.1631C15.3306 23.3714 16.3305 24.3295 17.5386 24.3295C18.7467 24.3295 19.705 23.3714 19.705 22.1631C19.705 20.9134 18.7467 19.9553 17.5386 19.9553Z" fill="white"/>
<path fill-rule="evenodd" clip-rule="evenodd" d="M47.534 23.1213C47.2007 23.1213 46.9508 22.8714 46.9508 22.5381C46.9508 10.79 37.3691 1.20816 25.5793 1.20816C13.8312 1.20816 4.24935 10.79 4.24935 22.5381C4.24935 22.8714 3.99943 23.1213 3.66624 23.1213C3.33293 23.1213 3.08301 22.8714 3.08301 22.5381C3.08301 10.1234 13.2064 0 25.621 0C38.0357 0 48.1591 10.1234 48.1591 22.5381C48.1174 22.8714 47.8673 23.1213 47.534 23.1213Z" fill="white"/>
<path fill-rule="evenodd" clip-rule="evenodd" d="M47.5335 37.4524H44.4924C44.1591 37.4524 43.9092 37.2024 43.9092 36.8691V22.5381C43.9092 22.2048 44.1591 21.9548 44.4924 21.9548H47.5335C49.5332 21.9548 51.1997 23.5796 51.1997 25.621V33.8279C51.1997 35.7859 49.5333 37.4524 47.5335 37.4524Z" fill="white"/>
<path fill-rule="evenodd" clip-rule="evenodd" d="M6.70727 37.4524H3.66616C1.66643 37.4524 0 35.8276 0 33.7862V25.621C0 23.6213 1.62473 21.9548 3.66616 21.9548H6.70727C7.04057 21.9548 7.2905 22.2048 7.2905 22.5381V36.8274C7.33207 37.1607 7.04057 37.4524 6.70727 37.4524Z" fill="white"/>
<path fill-rule="evenodd" clip-rule="evenodd" d="M21.2463 47.7424C21.2047 47.7424 21.163 47.7424 21.1213 47.7424C14.914 46.4925 9.45645 42.6599 6.20699 37.1608C6.04034 36.869 6.12373 36.4941 6.41534 36.3275C6.70696 36.1608 7.08184 36.2442 7.24849 36.5357C10.3313 41.7432 15.4972 45.4093 21.3712 46.5758C21.7045 46.6591 21.9127 46.9507 21.8295 47.284C21.7462 47.5757 21.4962 47.7424 21.2463 47.7424Z" fill="white"/>
<path fill-rule="evenodd" clip-rule="evenodd" d="M27.496 50.6587H23.6633C21.9969 50.6587 20.6221 49.2839 20.6221 47.6176C20.6221 45.9095 21.9969 44.5347 23.6633 44.5347H27.496C29.1624 44.5347 30.5372 45.9095 30.5372 47.6176C30.5788 49.284 29.204 50.6587 27.496 50.6587Z" fill="white"/>
</svg>
