<svg width="64" height="64" viewBox="0 0 64 64" fill="none" xmlns="http://www.w3.org/2000/svg">
<path d="M22.08 32L6.71999 16.96C6.07999 16.32 6.07999 15.36 6.71999 14.72L14.4 7.04C15.04 6.4 16 6.4 16.64 7.04L31.68 22.08" stroke="#180C28" stroke-miterlimit="10"/>
<path d="M41.6 32L56.96 47.36C57.6 48 57.6 48.96 56.96 49.6L49.28 57.28C48.64 57.92 47.68 57.92 47.04 57.28L32 41.92" stroke="#180C28" stroke-miterlimit="10"/>
<path d="M44.9834 55.2402L41.8156 52.0723L48.3777 45.5105L51.5455 48.6784L44.9834 55.2402Z" fill="#180C28"/>
<path d="M38.4005 48.5184L35.2327 45.3505L38.6268 41.9565L41.7946 45.1244L38.4005 48.5184Z" fill="#180C28"/>
<path d="M18.8044 28.6946L15.6367 25.5267L22.1987 18.9649L25.3665 22.1328L18.8044 28.6946Z" fill="#180C28"/>
<path d="M12.2189 22.4307L9.05115 19.2628L12.4453 15.8687L15.6131 19.0366L12.2189 22.4307Z" fill="#180C28"/>
<path d="M44.8 9.27999L46.72 7.35999C48 6.07999 49.92 6.07999 51.2 7.35999L56.64 12.8C57.92 14.08 57.92 16 56.64 17.28L54.72 19.2" stroke="#6F01FA" stroke-miterlimit="10" stroke-linecap="round" stroke-linejoin="round"/>
<path d="M42.2939 12.1172L52.0236 21.8471L21.476 52.3936L11.7464 42.6637L42.2939 12.1172Z" stroke="#6F01FA" stroke-miterlimit="10" stroke-linecap="round" stroke-linejoin="round"/>
<path d="M14.1425 46.5356L45.3677 15.3092L48.5356 18.477L17.3104 49.7034L14.1425 46.5356Z" fill="#6F01FA"/>
<path d="M6.71973 57.2801L11.5197 42.5601L21.4397 52.4801L6.71973 57.2801Z" stroke="#6F01FA" stroke-miterlimit="10" stroke-linecap="round" stroke-linejoin="round"/>
<path d="M8.31973 52.48L6.71973 57.28L11.5197 55.68L8.31973 52.48Z" fill="#6F01FA"/>
<path d="M55.36 18.56L51.52 22.08L41.92 12.48L45.44 8.64001" stroke="#6F01FA" stroke-miterlimit="10" stroke-linecap="round" stroke-linejoin="round"/>
</svg>
