<svg width="64" height="64" viewBox="0 0 64 64" fill="none" xmlns="http://www.w3.org/2000/svg">
<path d="M29.4805 36.8311L27.0824 29.6694L34.5241 27.1776L36.9221 34.3392L29.4805 36.8311Z" fill="#FA8201"/>
<path d="M24.3455 6.48744C5.21312 12.2269 0.747287 20.5181 6.48763 39.6545C12.2284 58.7878 20.5215 63.2536 39.6538 57.5114C58.7884 51.7702 63.2533 43.4785 57.5125 24.3453C51.7745 5.20973 43.4805 0.747557 24.3455 6.48744ZM47.8353 36.769L44.2284 37.9754L45.4773 41.7103C45.625 42.1502 45.6644 42.6192 45.5921 43.0775C45.5199 43.5359 45.3381 43.97 45.0623 44.3431C44.7864 44.7163 44.4247 45.0173 44.0076 45.2208C43.5906 45.4242 43.1307 45.5241 42.6668 45.5119C42.0745 45.4965 41.5012 45.2993 41.0248 44.9469C40.5484 44.5945 40.192 44.104 40.004 43.5421L38.7532 39.809L31.3137 42.3018L32.5635 46.034C32.7107 46.4738 32.7497 46.9426 32.6773 47.4008C32.6049 47.8589 32.4232 48.2928 32.1476 48.6659C31.8719 49.0389 31.5105 49.34 31.0939 49.5438C30.6772 49.7476 30.2176 49.848 29.7539 49.8365C29.1617 49.8214 28.5884 49.6245 28.112 49.2724C27.6355 48.9203 27.2789 48.4302 27.0906 47.8685L25.8394 44.1327L22.2316 45.3432C21.8721 45.4636 21.4923 45.512 21.114 45.4856C20.7358 45.4593 20.3664 45.3587 20.027 45.1895C19.3416 44.848 18.8199 44.2481 18.5768 43.522C18.3336 42.7958 18.3889 42.0028 18.7305 41.3173C19.072 40.6319 19.6719 40.1103 20.398 39.8671L24.0076 38.6575L21.6081 31.4977L18.0003 32.7069C17.6408 32.8272 17.261 32.8755 16.8828 32.849C16.5045 32.8226 16.1352 32.7219 15.7959 32.5527C15.4566 32.3835 15.1539 32.1491 14.9052 31.8629C14.6565 31.5767 14.4666 31.2443 14.3464 30.8847C14.1038 30.1593 14.1591 29.3673 14.5 28.6826C14.841 27.9979 15.4398 27.4765 16.1649 27.233L19.7745 26.0225L18.5237 22.2904C18.4031 21.931 18.3546 21.5514 18.3808 21.1732C18.407 20.795 18.5075 20.4257 18.6766 20.0863C18.8457 19.747 19.08 19.4444 19.3661 19.1957C19.6522 18.947 19.9845 18.7571 20.3441 18.6369C21.0702 18.3942 21.8629 18.4496 22.5482 18.7909C23.2334 19.1322 23.7552 19.7315 23.9989 20.4573L25.2479 24.1912L32.6897 21.6993L31.4371 17.9663C31.1945 17.2403 31.2499 16.4478 31.5911 15.7626C31.9323 15.0775 32.5315 14.5557 33.257 14.3119C33.9831 14.069 34.776 14.1243 35.4614 14.4657C36.1467 14.807 36.6686 15.4064 36.9123 16.1322L38.1612 19.8653L41.7708 18.657C42.4966 18.4141 43.2891 18.4694 43.9741 18.8108C44.6591 19.1522 45.1804 19.7517 45.4234 20.4774C45.5438 20.8368 45.5922 21.2164 45.5659 21.5946C45.5396 21.9727 45.4391 22.3419 45.27 22.6812C45.101 23.0205 44.8668 23.3231 44.5807 23.5719C44.2947 23.8206 43.9625 24.0105 43.6031 24.1309L39.9953 25.3391L42.393 32.5025L46.0026 31.292C46.7285 31.0496 47.5209 31.1051 48.2059 31.4464C48.8909 31.7877 49.4125 32.3869 49.6561 33.1124C49.8994 33.8387 49.8442 34.632 49.5028 35.3177C49.1613 36.0034 48.5615 36.5254 47.8353 36.769Z" fill="#FA8201"/>
<path d="M29.4805 36.8311L27.0824 29.6694L34.5241 27.1776L36.9221 34.3392L29.4805 36.8311Z" fill="white"/>
<path d="M31.5812 18.3972C31.2486 19.0763 31.1967 19.859 31.4368 20.576L31.9026 21.9634L32.6898 21.6992L31.5812 18.3972ZM18.667 22.7204C18.3346 23.4002 18.2829 24.1834 18.523 24.901L18.987 26.2866L19.7742 26.0224L18.667 22.7204ZM47.835 36.7689L44.2281 37.9753L45.0135 40.3236L47.835 39.3792C48.1946 39.2588 48.527 39.0688 48.8132 38.8199C49.0993 38.571 49.3337 38.2683 49.5028 37.9288C49.6719 37.5894 49.7725 37.2199 49.7988 36.8416C49.8252 36.4633 49.7767 36.0835 49.6562 35.7239C49.61 35.589 49.5474 35.4683 49.4848 35.3463C49.1419 36.0179 48.5497 36.5286 47.835 36.7689Z" fill="#666666"/>
<path d="M24.3447 9.09819C43.4798 3.35784 51.7737 7.81956 57.5123 26.9551C58.8576 31.4433 59.6361 35.329 59.8012 38.7293C60.0142 34.7444 59.2169 30.0257 57.5123 24.3453C51.7737 5.20973 43.4798 0.747557 24.3447 6.48744C9.69923 10.8815 3.6558 16.7768 4.19843 27.8785C4.69717 18.4367 10.8915 13.1325 24.3447 9.09819Z" fill="white"/>
<path d="M43.6024 24.1312L39.9946 25.3394L40.7818 27.6868L43.6024 26.7424C43.9619 26.622 44.2942 26.432 44.5803 26.1832C44.8663 25.9344 45.1006 25.6316 45.2696 25.2923C45.4386 24.9529 45.5392 24.5836 45.5655 24.2054C45.5917 23.8272 45.5432 23.4475 45.4227 23.088C45.3779 22.954 45.3139 22.8334 45.2527 22.7095C44.9105 23.3816 44.3178 23.8923 43.6024 24.1312ZM14.3453 33.4953C14.4655 33.8549 14.6554 34.1873 14.9041 34.4734C15.1528 34.7596 15.4555 34.994 15.7948 35.1632C16.1341 35.3323 16.5035 35.433 16.8817 35.4594C17.2599 35.4858 17.6397 35.4374 17.9992 35.317L21.607 34.1079L23.2198 38.9211L24.0065 38.6578L21.607 31.498L17.9992 32.7072C17.6794 32.8141 17.3434 32.8646 17.0063 32.8562C16.4863 32.8414 15.98 32.6867 15.5406 32.4082C15.1013 32.1298 14.7452 31.7379 14.5098 31.274C14.3357 31.6146 14.2314 31.9866 14.2032 32.368C14.1749 32.7495 14.2232 33.1328 14.3453 33.4953ZM43.6563 45.3623C42.9305 45.6051 42.1379 45.5496 41.4529 45.2082C40.7678 44.8667 40.2464 44.2672 40.0033 43.5415L38.7526 39.8084L31.313 42.3012L32.0998 44.6478L38.753 42.4183L40.0038 46.1522C40.2471 46.8778 40.7685 47.4772 41.4535 47.8186C42.1384 48.16 42.9309 48.2155 43.6568 47.973C44.0162 47.8528 44.3485 47.663 44.6345 47.4144C44.9206 47.1657 45.1548 46.8632 45.3239 46.524C45.4929 46.1847 45.5935 45.8155 45.6198 45.4374C45.6461 45.0594 45.5976 44.6798 45.4771 44.3204L45.3327 43.8894C45.1655 44.2342 44.9311 44.5421 44.6432 44.795C44.3553 45.048 44.0198 45.2408 43.6563 45.3623ZM30.743 49.6882C30.0172 49.9313 29.2245 49.8761 28.5394 49.5349C27.8542 49.1936 27.3327 48.5941 27.0895 47.8683L25.8383 44.1326L22.2305 45.3431C21.5736 45.5617 20.86 45.5371 20.2197 45.2737C19.5794 45.0103 19.055 44.5257 18.7421 43.9081C18.5675 44.2489 18.463 44.6211 18.4346 45.0029C18.4062 45.3847 18.4544 45.7683 18.5766 46.1312C18.8201 46.8569 19.3417 47.4563 20.0267 47.7979C20.7118 48.1394 21.5044 48.1952 22.2305 47.9529L25.8383 46.7433L27.0895 50.4791C27.3328 51.2048 27.8543 51.8042 28.5394 52.1454C29.2246 52.4867 30.0172 52.5419 30.743 52.299C31.4689 52.0555 32.0685 51.5336 32.4097 50.8481C32.7509 50.1626 32.8058 49.3696 32.5624 48.6436L32.4184 48.2144C32.2515 48.5594 32.0173 48.8675 31.7296 49.1206C31.4419 49.3737 31.1064 49.5667 30.743 49.6882Z" fill="#666666"/>
<path d="M59.3833 32.2286C59.3728 32.1591 59.3591 32.0873 59.3472 32.0178C59.2398 31.3686 59.1185 30.7217 58.9833 30.0777C58.8909 29.634 58.793 29.1915 58.6898 28.7502C58.6469 28.5655 58.6044 28.3813 58.5591 28.1947C58.4503 27.7472 58.3333 27.2919 58.2107 26.8325C58.1632 26.6519 58.1189 26.4745 58.0686 26.2921C57.8911 25.641 57.7055 24.9921 57.5118 24.3456C51.7742 5.2096 43.4802 0.747426 24.3452 6.48731C23.8057 6.6496 23.2818 6.81417 22.7662 6.98011C22.6075 7.03086 22.4526 7.08297 22.2967 7.13371C21.9328 7.2544 21.5744 7.37463 21.2215 7.49623C21.0578 7.55337 20.8937 7.61051 20.7328 7.66766C20.347 7.80434 19.9698 7.94377 19.5986 8.08366C19.4981 8.12114 19.3947 8.15863 19.2951 8.19703C18.8462 8.36937 18.4101 8.54445 17.9826 8.72274C17.8313 8.78537 17.685 8.84937 17.536 8.91291C17.0876 9.10372 16.6426 9.3023 16.2011 9.50857C15.9451 9.62834 15.6951 9.7504 15.4473 9.87291C15.2965 9.94697 15.1424 10.021 14.9947 10.096C14.6395 10.2779 14.2935 10.4622 13.9566 10.6496C13.798 10.7369 13.6466 10.8283 13.4917 10.9175C13.2969 11.0309 13.1031 11.1442 12.9147 11.2585C12.7442 11.3632 12.5765 11.4683 12.411 11.5744C12.2502 11.6783 12.0903 11.7836 11.9314 11.8903C11.7655 12.0018 11.5982 12.1134 11.4382 12.2267C11.2887 12.3328 11.1456 12.4411 11.0016 12.549C10.7118 12.7643 10.432 12.9838 10.1614 13.2069C10.0503 13.2987 9.93646 13.3897 9.82812 13.4834C9.57104 13.7084 9.31909 13.9392 9.07246 14.1755C8.91566 14.3264 8.76024 14.4773 8.61212 14.6309C8.54904 14.6962 8.48961 14.763 8.42789 14.8302C8.10533 15.1734 7.79798 15.5306 7.50675 15.9008L7.42812 15.9982C7.23622 16.2494 7.05161 16.5061 6.87452 16.768C6.74378 16.9618 6.61669 17.1566 6.49555 17.3536C6.46812 17.3993 6.44206 17.4464 6.41464 17.4921C6.01589 18.1618 5.67044 18.8619 5.38149 19.5858C5.36549 19.627 5.34858 19.6663 5.33304 19.7074C5.23882 19.9496 5.15072 20.1941 5.06881 20.4407L5.04046 20.5289C4.69258 21.5977 4.44984 22.7314 4.30949 23.936L4.30538 23.9744C3.81989 28.2226 4.59521 33.3458 6.48686 39.6539C12.2277 58.7872 20.5207 63.253 39.653 57.5109C55.9255 52.6304 61.5835 45.8981 59.3833 32.2286ZM49.4857 35.3481L49.4848 35.3454C49.1422 36.0173 48.5499 36.5281 47.835 36.7685L44.2281 37.9749L45.477 41.7097C45.7186 42.4275 45.667 43.2117 45.3335 43.8917L45.3326 43.8889C45.1655 44.2338 44.9312 44.5417 44.6434 44.7948C44.3556 45.0478 44.0201 45.2407 43.6567 45.3623C42.9308 45.6051 42.1382 45.5496 41.4532 45.2082C40.7682 44.8668 40.2468 44.2672 40.0037 43.5415L38.7529 39.8085L31.3134 42.3013L32.5632 46.0334C32.8046 46.7512 32.753 47.5353 32.4197 48.2153L32.4192 48.2135C32.1783 48.7119 31.7986 49.1301 31.3258 49.418C30.8529 49.7058 30.307 49.8509 29.7536 49.8359C29.1614 49.8208 28.5881 49.6239 28.1117 49.2718C27.6352 48.9197 27.2786 48.4296 27.0903 47.8679L25.8391 44.1321L22.2313 45.3426C21.9116 45.4485 21.576 45.4983 21.2393 45.4898C21.1012 45.4857 20.9635 45.4717 20.8274 45.4478C20.7794 45.4386 20.7333 45.4245 20.6857 45.4149C20.5999 45.3966 20.5149 45.3743 20.4311 45.3481C20.373 45.3294 20.3168 45.3061 20.2606 45.2837C20.1271 45.2345 19.9987 45.1726 19.877 45.099C19.706 45.0026 19.5463 44.8873 19.4011 44.7552C19.3389 44.7011 19.2791 44.6442 19.222 44.5847C19.1895 44.5499 19.1589 44.5125 19.1273 44.475C19.0672 44.4074 19.0106 44.3367 18.9577 44.2633C18.9376 44.235 18.9211 44.2034 18.9019 44.1742C18.8447 44.0882 18.7917 43.9994 18.7433 43.9081L18.7429 43.909C18.6782 43.7841 18.6231 43.6545 18.5778 43.5214C18.3347 42.7954 18.3899 42.0025 18.7313 41.3172C19.0727 40.6319 19.6722 40.1103 20.3982 39.867L24.0078 38.6574L21.6082 31.4976L18.0005 32.7067C17.6807 32.8137 17.3447 32.8641 17.0075 32.8558C16.8697 32.8514 16.7324 32.837 16.5966 32.8128C16.5468 32.8046 16.4988 32.7904 16.4494 32.779C16.3656 32.7613 16.2828 32.7394 16.2011 32.7136C16.1422 32.6949 16.0855 32.6706 16.0279 32.6482C15.96 32.6219 15.8931 32.5933 15.8272 32.5623C15.7076 32.5015 15.5914 32.434 15.4793 32.3602C15.3673 32.286 15.2611 32.2033 15.1616 32.1129C15.1046 32.0627 15.0497 32.0103 14.997 31.9557C14.9559 31.9127 14.918 31.8656 14.8791 31.8199C14.8288 31.76 14.7776 31.7001 14.7324 31.6361C14.6985 31.5881 14.6693 31.536 14.6382 31.4862C14.5957 31.4167 14.5509 31.3495 14.5134 31.2763C14.4484 31.1497 14.3928 31.0184 14.347 30.8837C14.1044 30.1583 14.1597 29.3662 14.5006 28.6815C14.8416 27.9968 15.4404 27.4755 16.1655 27.232L19.7751 26.0215L18.6684 22.7195L18.5243 22.2894C18.4037 21.93 18.3552 21.5503 18.3814 21.1721C18.4076 20.7939 18.5081 20.4246 18.6772 20.0853C18.8463 19.746 19.0806 19.4433 19.3667 19.1946C19.6528 18.9459 19.9851 18.7561 20.3447 18.6359C21.0708 18.3932 21.8635 18.4485 22.5488 18.7898C23.234 19.1311 23.7558 19.7305 23.9996 20.4562L25.2485 24.1902L31.9036 21.9625L32.6908 21.6983L31.4382 17.9653C31.1956 17.2393 31.2509 16.4467 31.5922 15.7616C31.9334 15.0764 32.5325 14.5547 33.2581 14.3109C33.9842 14.068 34.777 14.1233 35.4624 14.4646C36.1478 14.8059 36.6697 15.4054 36.9134 16.1312L38.1623 19.8642L41.7719 18.656C42.3158 18.4741 42.9015 18.4584 43.4544 18.6109C44.0072 18.7633 44.5021 19.0771 44.8759 19.512C45.2497 19.947 45.4854 20.4834 45.553 21.0529C45.6206 21.6224 45.5169 22.1991 45.2553 22.7095L45.2544 22.7077C45.0017 23.2024 44.6117 23.6138 44.1312 23.8926C44.1285 23.8953 44.1248 23.8962 44.1221 23.8971C43.9577 23.9924 43.784 24.0706 43.6037 24.1303L39.9959 25.3385L42.3936 32.5019L46.0032 31.2914C46.7291 31.049 47.5215 31.1045 48.2065 31.4458C48.8915 31.7871 49.4131 32.3863 49.6567 33.1118C49.7791 33.477 49.8271 33.8631 49.7977 34.2473C49.7684 34.6314 49.6623 35.0057 49.4857 35.3481Z" stroke="#161B20" stroke-width="2" stroke-miterlimit="10" stroke-linecap="round" stroke-linejoin="round"/>
<path d="M29.4788 36.8288L27.0811 29.6677L34.522 27.1762L36.9202 34.3374L29.4788 36.8288Z" stroke="#161B20" stroke-width="2" stroke-miterlimit="10" stroke-linecap="round" stroke-linejoin="round"/>
</svg>
