<svg width="64" height="64" viewBox="0 0 64 64" fill="none" xmlns="http://www.w3.org/2000/svg">
<path d="M54.9376 56.4288H9.06241C8.72293 56.4288 8.39736 56.2939 8.15731 56.0539C7.91727 55.8139 7.78241 55.4883 7.78241 55.1488V9.19681C7.78241 8.85733 7.91727 8.53176 8.15731 8.29171C8.39736 8.05167 8.72293 7.91681 9.06241 7.91681H54.9376C55.2771 7.91681 55.6027 8.05167 55.8427 8.29171C56.0827 8.53176 56.2176 8.85733 56.2176 9.19681V55.1488C56.2176 55.4883 56.0827 55.8139 55.8427 56.0539C55.6027 56.2939 55.2771 56.4288 54.9376 56.4288ZM10.3424 53.8688H53.6576V10.4768H10.3424V53.8688Z" fill="#161B20"/>
<path d="M49.9904 50.0672H59.7824V59.8592H49.9904V50.0672Z" fill="#1CA59B"/>
<path d="M59.7756 61.1391H49.99C49.6505 61.1391 49.3249 61.0043 49.0849 60.7642C48.8448 60.5242 48.71 60.1986 48.71 59.8591V50.0671C48.71 49.7276 48.8448 49.4021 49.0849 49.162C49.3249 48.922 49.6505 48.7871 49.99 48.7871H59.7756C60.115 48.7871 60.4406 48.922 60.6807 49.162C60.9207 49.4021 61.0556 49.7276 61.0556 50.0671V59.8591C61.0556 60.1986 60.9207 60.5242 60.6807 60.7642C60.4406 61.0043 60.115 61.1391 59.7756 61.1391ZM51.27 58.5791H58.4956V51.3471H51.27V58.5791Z" fill="#161B20"/>
<path d="M4.22363 50.0674H14.0156V59.8594H4.22363V50.0674Z" fill="#1CA59B"/>
<path d="M14.0099 61.1391H4.22434C3.88486 61.1391 3.55929 61.0043 3.31924 60.7642C3.07919 60.5242 2.94434 60.1986 2.94434 59.8591V50.0671C2.94434 49.7276 3.07919 49.4021 3.31924 49.162C3.55929 48.922 3.88486 48.7871 4.22434 48.7871H14.0099C14.3494 48.7871 14.675 48.922 14.915 49.162C15.1551 49.4021 15.2899 49.7276 15.2899 50.0671V59.8591C15.2899 60.1986 15.1551 60.5242 14.915 60.7642C14.675 61.0043 14.3494 61.1391 14.0099 61.1391ZM5.50434 58.5791H12.7299V51.3471H5.50434V58.5791Z" fill="#161B20"/>
<path d="M49.9904 4.30081H59.7824V14.0928H49.9904V4.30081Z" fill="#1CA59B"/>
<path d="M59.7756 15.3602H49.99C49.6505 15.3602 49.3249 15.2253 49.0849 14.9853C48.8448 14.7452 48.71 14.4197 48.71 14.0802V4.301C48.71 3.96152 48.8448 3.63595 49.0849 3.3959C49.3249 3.15585 49.6505 3.021 49.99 3.021H59.7756C60.115 3.021 60.4406 3.15585 60.6807 3.3959C60.9207 3.63595 61.0556 3.96152 61.0556 4.301V14.0802C61.0556 14.4197 60.9207 14.7452 60.6807 14.9853C60.4406 15.2253 60.115 15.3602 59.7756 15.3602ZM51.27 12.8002H58.4956V5.581H51.27V12.8002Z" fill="#161B20"/>
<path d="M4.22363 4.30078H14.0156V14.0928H4.22363V4.30078Z" fill="#1CA59B"/>
<path d="M14.0099 15.3602H4.22434C3.88486 15.3602 3.55929 15.2253 3.31924 14.9853C3.07919 14.7452 2.94434 14.4197 2.94434 14.0802V4.301C2.94434 3.96152 3.07919 3.63595 3.31924 3.3959C3.55929 3.15585 3.88486 3.021 4.22434 3.021H14.0099C14.3494 3.021 14.675 3.15585 14.915 3.3959C15.1551 3.63595 15.2899 3.96152 15.2899 4.301V14.0802C15.2899 14.4197 15.1551 14.7452 14.915 14.9853C14.675 15.2253 14.3494 15.3602 14.0099 15.3602ZM5.50434 12.8002H12.7299V5.581H5.50434V12.8002Z" fill="#161B20"/>
<path d="M29.6384 22.2336H21.9584C21.0928 22.2304 20.231 22.3489 19.3984 22.5856L16.384 23.4368C16.3082 23.4551 16.2292 23.4561 16.1529 23.4396C16.0766 23.4231 16.0051 23.3896 15.9436 23.3416C15.882 23.2936 15.8321 23.2324 15.7976 23.1624C15.763 23.0925 15.7447 23.0156 15.744 22.9376V18.0736C15.744 17.9361 15.7986 17.8043 15.8959 17.707C15.9931 17.6098 16.1249 17.5552 16.2624 17.5552H47.7312C47.7993 17.5552 47.8667 17.5686 47.9296 17.5947C47.9925 17.6207 48.0496 17.6589 48.0978 17.707C48.1459 17.7552 48.1841 17.8123 48.2102 17.8752C48.2362 17.9381 48.2496 18.0055 48.2496 18.0736V22.944C48.2477 23.0216 48.2286 23.0979 48.1937 23.1672C48.1588 23.2366 48.109 23.2973 48.0477 23.345C47.9865 23.3928 47.9155 23.4264 47.8397 23.4433C47.7639 23.4603 47.6854 23.4603 47.6096 23.4432L44.4096 22.5664C43.6029 22.3438 42.7697 22.2319 41.9328 22.2336H34.3104V41.6C34.3077 43.2665 34.7496 44.9036 35.5904 46.3424L36.6464 48.1344C36.6922 48.2137 36.7165 48.3036 36.7167 48.3952C36.717 48.4868 36.6934 48.5768 36.6481 48.6564C36.6028 48.736 36.5374 48.8024 36.4585 48.8489C36.3797 48.8954 36.29 48.9205 36.1984 48.9216H27.744C27.6524 48.9205 27.5628 48.8954 27.4839 48.8489C27.405 48.8024 27.3397 48.736 27.2944 48.6564C27.2491 48.5768 27.2254 48.4868 27.2257 48.3952C27.226 48.3036 27.2502 48.2137 27.296 48.1344L28.3456 46.3424C29.1862 44.9034 29.628 43.2665 29.6256 41.6L29.6384 22.2336Z" fill="#1CA59B"/>
<path d="M36.2053 50.2082H27.7445C27.4274 50.2075 27.1161 50.1232 26.8419 49.9639C26.5677 49.8046 26.3404 49.5759 26.1827 49.3008C26.025 49.0257 25.9426 48.7139 25.9438 48.3968C25.9449 48.0797 26.0296 47.7685 26.1893 47.4946L27.2453 45.7026C27.9758 44.459 28.3603 43.0425 28.3589 41.6002V23.5138H21.9589C21.2148 23.5145 20.4742 23.6156 19.7573 23.8146L16.7493 24.6722C16.4806 24.7488 16.1977 24.7614 15.9232 24.7092C15.6487 24.657 15.3903 24.5413 15.1685 24.3714C14.946 24.2048 14.7657 23.9883 14.6423 23.7393C14.5189 23.4903 14.4558 23.2157 14.4581 22.9378V18.0738C14.4581 17.5968 14.6475 17.1394 14.9848 16.8021C15.3221 16.4649 15.7795 16.2754 16.2565 16.2754H47.7317C48.2086 16.2754 48.6661 16.4649 49.0033 16.8021C49.3406 17.1394 49.5301 17.5968 49.5301 18.0738V22.9442C49.5313 23.2211 49.4683 23.4946 49.346 23.7431C49.2238 23.9916 49.0456 24.2084 48.8254 24.3765C48.6053 24.5445 48.3492 24.6593 48.0772 24.7117C47.8053 24.7641 47.5249 24.7528 47.2581 24.6786L44.0581 23.8018C43.3617 23.6103 42.6427 23.5134 41.9205 23.5138H35.5909V41.6002C35.5906 43.0403 35.975 44.4544 36.7045 45.6962L37.7605 47.4946C37.9219 47.7677 38.0083 48.0788 38.0107 48.3961C38.0131 48.7134 37.9315 49.0257 37.7743 49.3013C37.617 49.5768 37.3896 49.8059 37.1151 49.9652C36.8407 50.1245 36.529 50.2083 36.2117 50.2082H36.2053ZM29.0693 47.6482H34.8741L34.4965 47.0082C33.5331 45.369 33.027 43.5015 33.0309 41.6002V22.2338C33.0309 21.8943 33.1657 21.5687 33.4058 21.3287C33.6458 21.0886 33.9714 20.9538 34.3109 20.9538H41.9077C42.8589 20.9544 43.8059 21.0814 44.7237 21.3314L46.9701 21.9714V18.8354H17.0309V21.933L19.0725 21.357C20.0156 21.0892 20.9913 20.9535 21.9717 20.9538H29.6517C29.9911 20.9538 30.3167 21.0886 30.5568 21.3287C30.7968 21.5687 30.9317 21.8943 30.9317 22.2338V41.6002C30.9255 43.4995 30.4106 45.3625 29.4405 46.9954L29.0693 47.6482Z" fill="#161B20"/>
</svg>
